<?xml version="1.0" ?>
<svg xmlns="http://www.w3.org/2000/svg" viewBox="0 0 1061 978">
  <g fill="black" fill-rule="evenodd">
    <path d="M 768 887 L 763 889 L 763 891 L 768 889 Z M 814 854 L 814 856 L 816 856 L 816 854 Z M 169 771 L 174 779 L 178 781 L 174 774 Z M 1020 537 L 1020 539 L 1022 539 L 1022 537 Z M 821 470 L 802 463 L 796 459 L 788 460 L 780 466 L 779 471 L 781 474 L 781 480 L 765 523 L 754 560 L 747 593 L 745 595 L 699 601 L 659 610 L 654 609 L 662 566 L 662 557 L 666 547 L 665 534 L 662 524 L 655 510 L 646 501 L 636 496 L 632 491 L 624 490 L 615 496 L 615 499 L 610 504 L 614 513 L 614 521 L 608 560 L 602 584 L 602 592 L 600 593 L 603 598 L 597 623 L 593 624 L 590 628 L 561 637 L 544 645 L 534 645 L 528 652 L 528 662 L 533 669 L 535 677 L 544 686 L 566 689 L 572 686 L 577 687 L 564 741 L 558 758 L 558 761 L 560 761 L 561 758 L 566 759 L 562 774 L 566 775 L 564 790 L 566 790 L 569 783 L 573 783 L 569 796 L 572 795 L 572 792 L 582 773 L 585 774 L 585 777 L 578 796 L 582 797 L 581 802 L 583 802 L 595 785 L 598 785 L 600 782 L 605 784 L 605 782 L 601 781 L 601 778 L 604 773 L 609 774 L 613 760 L 616 756 L 616 751 L 620 745 L 632 705 L 641 666 L 651 661 L 687 649 L 698 647 L 697 641 L 699 639 L 736 629 L 739 630 L 733 679 L 733 722 L 735 739 L 740 755 L 745 765 L 749 769 L 758 774 L 761 778 L 768 781 L 781 781 L 795 772 L 803 753 L 799 747 L 792 752 L 788 751 L 784 735 L 783 714 L 781 712 L 784 670 L 791 621 L 794 617 L 805 616 L 806 613 L 812 613 L 813 607 L 820 607 L 821 604 L 842 603 L 843 598 L 848 598 L 848 596 L 821 594 L 821 590 L 800 589 L 805 568 L 829 511 L 833 508 L 835 499 L 831 483 L 828 477 Z M 517 447 L 496 439 L 466 434 L 433 434 L 413 436 L 364 447 L 330 458 L 292 476 L 260 498 L 240 517 L 230 530 L 225 545 L 219 551 L 219 561 L 228 571 L 228 576 L 235 583 L 248 586 L 261 582 L 266 577 L 268 565 L 272 558 L 300 530 L 322 515 L 323 512 L 326 512 L 330 507 L 377 485 L 390 484 L 428 475 L 444 473 L 469 473 L 491 477 L 502 482 L 510 489 L 513 496 L 513 509 L 506 529 L 496 545 L 485 558 L 463 579 L 437 598 L 387 625 L 384 624 L 389 597 L 396 569 L 403 556 L 401 540 L 396 530 L 390 524 L 385 523 L 376 517 L 371 517 L 365 512 L 357 513 L 351 518 L 351 527 L 346 535 L 340 552 L 320 623 L 311 665 L 305 708 L 304 743 L 305 752 L 307 753 L 309 760 L 308 765 L 313 772 L 318 774 L 321 783 L 324 786 L 333 783 L 341 784 L 345 794 L 348 794 L 349 788 L 359 787 L 361 768 L 359 762 L 359 752 L 362 748 L 361 734 L 365 731 L 365 725 L 362 724 L 362 721 L 367 717 L 367 707 L 373 676 L 371 666 L 373 662 L 376 662 L 377 659 L 392 653 L 399 654 L 418 646 L 423 647 L 425 651 L 412 657 L 412 659 L 440 648 L 456 639 L 459 640 L 459 646 L 477 638 L 500 623 L 525 602 L 535 591 L 550 569 L 557 555 L 563 534 L 565 513 L 562 498 L 557 486 L 544 468 L 537 461 Z M 410 632 L 409 635 L 385 645 L 385 647 L 395 647 L 394 650 L 379 656 L 376 655 L 379 649 L 379 643 L 382 640 L 395 637 L 407 631 Z M 382 372 L 382 374 L 384 374 L 384 372 Z M 700 368 L 700 370 L 704 370 L 704 368 Z M 19 368 L 21 382 L 18 390 L 26 467 L 41 534 L 58 585 L 76 628 L 104 682 L 126 717 L 148 747 L 150 747 L 151 743 L 156 741 L 158 743 L 154 750 L 152 750 L 163 766 L 168 769 L 168 767 L 156 754 L 156 748 L 160 748 L 166 754 L 181 774 L 220 813 L 220 817 L 218 817 L 218 819 L 243 841 L 243 845 L 246 846 L 247 849 L 258 852 L 260 859 L 266 860 L 266 863 L 273 863 L 277 866 L 278 872 L 286 875 L 287 878 L 324 901 L 386 930 L 425 943 L 430 940 L 432 945 L 453 949 L 454 946 L 467 948 L 469 953 L 471 953 L 472 950 L 497 954 L 498 957 L 502 957 L 504 955 L 530 959 L 576 958 L 606 954 L 655 943 L 656 938 L 662 941 L 664 940 L 665 935 L 669 936 L 669 938 L 674 937 L 675 932 L 696 925 L 699 922 L 706 921 L 706 919 L 704 919 L 700 922 L 692 924 L 689 923 L 690 920 L 705 914 L 710 915 L 710 918 L 714 917 L 712 914 L 713 911 L 719 911 L 719 914 L 721 914 L 726 910 L 730 910 L 731 908 L 738 906 L 738 904 L 736 904 L 731 908 L 722 909 L 723 906 L 747 895 L 748 893 L 751 894 L 749 899 L 760 894 L 760 892 L 754 892 L 755 889 L 767 882 L 774 881 L 771 886 L 778 883 L 807 863 L 807 861 L 804 863 L 800 862 L 801 859 L 812 852 L 835 832 L 838 833 L 838 836 L 842 834 L 839 829 L 877 793 L 905 760 L 924 734 L 951 691 L 975 645 L 998 590 L 1010 553 L 1017 525 L 1023 525 L 1023 528 L 1025 528 L 1027 516 L 1020 515 L 1020 512 L 1022 510 L 1029 511 L 1037 468 L 1042 414 L 1042 391 L 1040 383 L 1042 368 L 1036 359 L 1033 359 L 1030 356 L 1013 353 L 994 352 L 933 355 L 884 355 L 817 359 L 740 361 L 731 363 L 717 362 L 717 368 L 708 368 L 710 375 L 733 376 L 732 379 L 707 380 L 707 382 L 721 384 L 720 387 L 712 387 L 710 390 L 728 391 L 732 393 L 732 396 L 743 397 L 743 401 L 778 403 L 988 401 L 990 403 L 990 435 L 981 504 L 963 570 L 940 626 L 942 626 L 945 619 L 949 619 L 949 621 L 951 621 L 951 618 L 953 617 L 966 588 L 985 534 L 995 492 L 998 493 L 997 503 L 989 539 L 981 565 L 956 629 L 933 671 L 928 673 L 911 700 L 871 751 L 840 783 L 807 812 L 773 837 L 733 860 L 728 857 L 699 872 L 654 888 L 617 897 L 591 901 L 533 903 L 509 901 L 474 895 L 472 893 L 457 889 L 447 888 L 428 880 L 422 880 L 417 876 L 390 866 L 352 846 L 323 828 L 292 805 L 263 780 L 225 741 L 188 693 L 166 658 L 143 615 L 126 575 L 115 543 L 103 499 L 93 435 L 92 405 L 93 400 L 106 396 L 288 395 L 288 393 L 270 392 L 271 385 L 276 386 L 276 389 L 281 389 L 282 385 L 346 386 L 347 382 L 360 383 L 360 387 L 362 387 L 363 382 L 366 383 L 366 387 L 377 387 L 377 385 L 371 384 L 373 374 L 376 374 L 377 368 L 380 368 L 381 364 L 393 364 L 393 362 L 354 360 L 350 358 L 352 353 L 184 346 L 78 345 L 40 350 L 36 352 L 33 357 L 26 359 Z M 655 932 L 658 933 L 657 936 L 654 935 Z M 676 927 L 673 931 L 667 933 L 664 932 L 665 929 L 673 926 Z M 788 872 L 787 875 L 782 878 L 777 878 L 782 872 Z M 226 820 L 229 821 L 228 824 L 225 823 Z M 148 739 L 151 740 L 150 744 L 147 743 Z M 143 732 L 148 731 L 150 733 L 149 737 L 145 738 L 142 735 Z M 948 614 L 951 615 L 950 618 L 947 617 Z M 1020 516 L 1023 517 L 1022 521 L 1019 520 Z M 1024 498 L 1027 499 L 1026 502 L 1023 501 Z M 1025 492 L 1028 493 L 1027 496 L 1024 495 Z M 1029 472 L 1032 473 L 1032 481 L 1029 488 L 1026 487 Z M 736 378 L 737 375 L 745 376 L 744 379 Z M 365 367 L 372 368 L 371 371 L 364 370 Z M 589 133 L 601 149 L 617 161 L 616 164 L 601 173 L 600 179 L 635 177 L 647 185 L 655 188 L 666 186 L 670 176 L 669 170 L 662 158 L 651 145 L 623 136 L 592 132 Z M 464 124 L 457 126 L 448 134 L 440 135 L 394 159 L 389 157 L 386 161 L 383 161 L 380 158 L 374 159 L 370 164 L 370 174 L 373 184 L 382 198 L 388 203 L 400 207 L 405 207 L 413 201 L 415 195 L 430 182 L 431 178 L 434 176 L 434 171 L 446 159 L 443 151 L 452 143 L 452 136 L 463 127 Z M 389 76 L 389 86 L 407 105 L 408 110 L 400 132 L 400 138 L 402 138 L 417 122 L 423 119 L 440 121 L 446 118 L 449 112 L 449 106 L 444 95 L 435 83 L 422 76 L 406 72 L 394 72 Z M 670 70 L 653 54 L 640 52 L 623 58 L 623 60 L 628 61 L 631 65 L 627 74 L 599 104 L 582 117 L 579 116 L 580 106 L 588 96 L 586 87 L 572 75 L 568 75 L 551 66 L 544 66 L 535 73 L 501 83 L 497 88 L 500 93 L 507 96 L 512 96 L 519 92 L 536 87 L 541 88 L 542 108 L 540 117 L 537 117 L 534 114 L 524 110 L 517 110 L 500 118 L 496 117 L 496 103 L 490 95 L 476 87 L 460 87 L 459 93 L 467 102 L 470 118 L 469 149 L 472 150 L 472 161 L 468 167 L 468 184 L 472 192 L 476 195 L 477 200 L 481 203 L 487 203 L 492 197 L 496 196 L 501 206 L 501 217 L 470 221 L 401 235 L 391 235 L 388 231 L 383 232 L 381 234 L 381 242 L 383 246 L 401 265 L 412 270 L 419 270 L 435 260 L 444 258 L 446 254 L 472 246 L 475 247 L 476 251 L 445 283 L 412 308 L 380 326 L 380 328 L 386 326 L 390 327 L 390 330 L 398 329 L 426 317 L 429 318 L 429 320 L 432 320 L 450 309 L 456 310 L 480 293 L 481 288 L 485 288 L 500 274 L 503 275 L 504 280 L 502 315 L 489 308 L 487 315 L 490 321 L 488 324 L 496 335 L 500 347 L 506 356 L 515 360 L 525 359 L 531 356 L 537 347 L 540 333 L 537 293 L 537 262 L 539 258 L 541 258 L 583 301 L 609 322 L 632 331 L 650 333 L 654 331 L 669 330 L 670 324 L 686 322 L 687 317 L 698 317 L 699 313 L 706 312 L 707 309 L 711 307 L 716 307 L 716 305 L 711 304 L 712 301 L 721 301 L 721 299 L 709 299 L 704 297 L 704 295 L 690 293 L 690 291 L 660 287 L 617 274 L 585 260 L 563 247 L 549 236 L 550 232 L 552 231 L 555 232 L 555 235 L 569 234 L 570 229 L 575 230 L 575 233 L 580 233 L 581 228 L 591 229 L 591 232 L 612 232 L 613 228 L 619 229 L 619 233 L 647 235 L 663 241 L 669 241 L 670 234 L 680 237 L 681 230 L 683 229 L 683 221 L 678 216 L 673 214 L 672 210 L 631 199 L 620 201 L 617 204 L 593 205 L 543 211 L 539 210 L 539 197 L 532 190 L 511 181 L 503 181 L 500 184 L 497 183 L 497 170 L 504 173 L 527 170 L 534 171 L 534 174 L 537 174 L 549 191 L 562 194 L 569 193 L 576 179 L 577 132 L 580 119 L 585 121 L 605 113 L 608 114 L 608 117 L 615 116 L 659 96 L 670 94 L 674 90 L 675 80 Z M 496 134 L 509 136 L 509 139 L 500 156 L 496 156 Z M 541 130 L 539 151 L 529 150 L 526 153 L 509 158 L 504 157 L 504 154 L 510 146 L 522 135 L 530 131 L 535 131 L 538 129 Z M 542 34 L 533 27 L 522 22 L 515 21 L 511 18 L 504 18 L 495 22 L 494 29 L 498 33 L 499 39 L 491 60 L 479 82 L 484 83 L 487 80 L 490 81 L 490 84 L 492 84 L 501 77 L 506 76 L 513 70 L 517 70 L 522 65 L 538 56 L 542 52 L 545 45 Z"/>
  </g>
</svg>
